<?xml version="1.0" encoding="UTF-8" standalone="no"?>
<!-- Created with Inkscape (http://www.inkscape.org/) -->

<svg
   width="889.47321mm"
   height="265.68243mm"
   viewBox="0 0 3361.7791 1004.1536"
   version="1.1"
   id="svg1"
   xml:space="preserve"
   xmlns="http://www.w3.org/2000/svg"
   xmlns:svg="http://www.w3.org/2000/svg"><defs
     id="defs1" /><g
     id="layer1"
     transform="translate(-123.25913,-120.91374)"><g
       id="g6562"
       transform="matrix(1.9395729,0,0,1.9060897,-1059.1701,-870.29709)"><rect
         style="display:none;fill:#000000;fill-opacity:1;stroke-width:0.592252"
         id="rect4"
         width="1851.4573"
         height="657.96606"
         x="546.0824"
         y="454.44684" /><g
         id="g1"
         transform="translate(357.63072,264.00172)"><path
           style="fill:#f4f4f3"
           d="M 480.34596,663.93474 C 338.34581,634.1007 313.81009,437.06259 443.93524,371.53261 c 140.16157,-70.58423 282.3767,95.3305 194.20556,226.56918 -23.40995,34.84463 -31.6865,37.65602 -51.87324,17.62035 -18.08767,-17.9523 -18.72601,-21.45258 -6.23326,-34.17944 81.29586,-82.81934 -25.6225,-216.87715 -120.70539,-151.34444 -74.25377,51.17694 -56.23226,144.07982 35.26839,181.81244 22.13881,9.1295 27.06737,13.94267 28.15531,27.49613 1.65044,20.56095 -15.04294,30.17699 -42.40665,24.42791 z M 497.5,554.87628 c -36.85271,-12.63268 -41.52042,-61.97805 -7.86408,-83.13634 24.33381,-15.29761 58.2055,-0.48189 65.83117,28.79502 8.84808,33.97007 -24.95396,65.65784 -57.96709,54.34132 z"
           id="path6562" /><path
           style="fill:#33b046"
           d="M 471,781.19149 C 325.88938,759.11863 228.3949,616.82464 256.98358,468.83278 295.90444,267.3554 536.28174,186.94571 687.96581,324.66298 c 100.95405,91.65838 111.65111,256.2387 23.73458,365.1698 -25.82008,31.99181 -29.87107,33.05851 -49.93043,13.14762 -15.0425,-14.93116 -17.17782,-22.8423 -8.1569,-30.22045 39.36645,-32.19759 68.90408,-111.25838 63.4859,-169.92717 C 700.77962,326.12464 485.95145,247.8448 364.99577,374.5322 244.80139,500.42222 321.42224,714.2258 492.27666,729.69807 c 19.3395,1.75135 30.79274,13.22351 29.48362,29.53233 -1.63576,20.37816 -17.1214,27.07792 -50.76028,21.96109 z"
           id="path6561" /></g><text
         xml:space="preserve"
         style="font-style:normal;font-variant:normal;font-weight:500;font-stretch:normal;font-size:99.8565px;font-family:'Noto Sans';-inkscape-font-specification:'Noto Sans Medium';text-align:start;writing-mode:lr-tb;direction:ltr;text-anchor:start;white-space:pre;inline-size:770.749;fill:#f4f4f3;fill-opacity:1;stroke-width:0.520086"
         x="1123.3451"
         y="566.52771"
         id="text4"
         transform="matrix(3.068554,0,0,3.2920843,-2291.5128,-993.67891)"><tspan
           x="1123.3451"
           y="566.52771"
           id="tspan1">EnvSync</tspan></text></g></g></svg>
